<svg fill="none" xmlns="http://www.w3.org/2000/svg" viewBox="0 0 222 190">
  <symbol id="2-years">
    <path d="M217.375 93.936a5.167 5.167 0 0 0-3.826-1.29 5.508 5.508 0 0 0-3.699 1.834 5.511 5.511 0 0 0 1.406-3.882 5.169 5.169 0 0 0-1.711-3.657 5.17 5.17 0 0 0-3.826-1.29 5.512 5.512 0 0 0-3.7 1.834c-3.99 4.467-1.871 12.483-1.883 17.869 5.351-.617 13.554.588 17.545-3.879a5.512 5.512 0 0 0 1.406-3.882 5.17 5.17 0 0 0-1.712-3.657Z" fill="currentColor" style="mix-blend-mode:difference"/>
    <path d="M27.472 43.627c18.835 5.047 24.347 1.865 29.394-16.97C51.819 45.491 55 51.002 73.836 56.05c-18.835-5.047-24.347-1.865-29.394 16.97 5.047-18.835 1.865-24.346-16.97-29.393Z" stroke="currentColor" stroke-width="2" stroke-linecap="round" stroke-linejoin="round" style="mix-blend-mode:difference"/>
    <circle cx="16.643" cy="12.337" r="4" transform="rotate(57.043 16.643 12.337)" stroke="currentColor" stroke-width="2" style="mix-blend-mode:difference"/>
    <circle cx="5.671" cy="2.766" r="1" transform="rotate(57.043 5.67 2.766)" stroke="currentColor" stroke-width="2" style="mix-blend-mode:difference"/>
    <circle cx="4.841" cy="13.435" r="2.5" transform="rotate(57.043 4.84 13.435)" stroke="currentColor" stroke-width="2" style="mix-blend-mode:difference"/>
    <path d="M97.855 164.507c-1.46-.167-7.143-.91-9.226-1.179l-1.7 14.813c-.075.655-.503.969-1.04.907-.536-.062-.853-.46-.778-1.116l1.776-15.468c.068-.597.467-.913 1.063-.845l10.103 1.16c.656.075.94.5.885.977-.055.477-.427.827-1.083.751Zm9.349 15.266c3.07.352 5.184-2.546 5.659-6.688.476-4.143-.93-7.415-4-7.767-3.07-.352-5.181 2.516-5.656 6.658-.476 4.143.927 7.445 3.997 7.797Zm-.195 1.699c-4.411-.506-6.258-4.674-5.68-9.711.575-5.007 3.318-8.648 7.729-8.142 4.411.506 6.258 4.674 5.683 9.681-.578 5.037-3.321 8.678-7.732 8.172Zm20.495.238 1.525-13.293-4.769-.547-2.486 9.559c-.48 1.817-1.034 2.961-1.543 3.446l7.273.835Zm-4.927-14.697c.165-.646.504-.969 1.04-.908l6.408.736c.656.075.973.474.897 1.129l-1.604 13.979 1.341.153c.537.062.883.464.808 1.12l-.427 3.725c-.076.656-.504.969-1.041.908-.536-.062-.853-.461-.778-1.116l.356-3.1-12.309-1.413-.356 3.1c-.075.656-.474.972-1.01.911-.537-.062-.883-.464-.808-1.12l.428-3.725c.075-.656.503-.969 1.04-.907 2.027.232 2.726-.865 3.425-3.533l2.59-9.939Zm12.961 17.733c-.536-.062-.883-.464-.808-1.119l1.184-10.313c.458-3.994 2.597-6.315 6.501-5.867 3.905.448 5.462 3.194 5.003 7.188l-1.183 10.312c-.075.656-.504.969-1.04.907-.537-.061-.853-.46-.778-1.116l.602-5.245-7.868-.903-.602 5.245c-.076.656-.474.972-1.011.911Zm10.059-10.29c.369-3.219-.661-5.028-3.373-5.34-2.712-.311-4.126 1.218-4.495 4.437l-.39 3.397 7.868.903.39-3.397Z" fill="currentColor" style="mix-blend-mode:difference"/>
    <g style="mix-blend-mode:difference" stroke="currentColor" stroke-width="2" stroke-linecap="round" stroke-linejoin="round">
      <path d="m99.39 10.066 1.108-.88M98.535 17.517l9.414-7.476M97.737 24.471l17.166-13.632M103.03 26.588l18.828-14.95M109.985 27.387l18.827-14.951M116.939 28.185l18.827-14.951M123.893 28.983l18.828-14.951M130.848 29.78l18.827-14.95M137.802 30.579l17.72-14.072M144.756 31.377l16.059-12.752M151.711 32.175l12.736-10.114M92.46 79.226l14.951-11.872M90.554 87.06l24.365-19.348M152.02 38.25l14.951-11.873M89.756 94.015l32.117-25.505M151.222 45.204l17.72-14.071M88.958 100.969l39.87-31.66M150.424 52.159l19.381-15.39M116.401 85.497l19.381-15.39M149.626 59.113l19.381-15.39M88.16 107.923l17.72-14.071M123.355 86.295l19.381-15.39M148.828 66.067l19.381-15.39M87.362 114.878l17.72-14.072M130.31 87.093l37.101-29.462M86.564 121.832l17.72-14.071M137.264 87.891l29.349-23.306M85.766 128.786l17.719-14.071M144.218 88.69l21.043-16.71M84.967 135.741l17.72-14.072M153.941 87.289l7.753-6.156M90.26 137.858l19.382-15.391M97.215 138.656l19.381-15.39M104.169 139.454l19.381-15.39M111.124 140.252l19.381-15.39M118.078 141.05l19.381-15.39M125.032 141.849l19.381-15.391M131.987 142.647l19.381-15.391M138.941 143.445l19.381-15.391M145.895 144.243l12.737-10.114M152.85 145.041l4.983-3.958M92.051 30.162l3.056-26.627 54.973 6.309c18.037 2.07 26.204 14.32 24.43 29.781l-3.352 29.204c-2.365 20.615-16.038 26.008-30.64 24.332l-29.204-3.351-3.155 27.486 56.691 6.506-3.155 27.486-82.459-9.463 6.31-54.973c2.168-18.896 13.461-26.303 28.922-24.529l29.204 3.352 3.352-29.204-54.973-6.309Z"/>
    </g>
  </symbol>
</svg>