<svg fill="none" xmlns="http://www.w3.org/2000/svg" viewBox="0 0 256 171">
  <symbol id="blob">
    <path d="M222.669 70.527c1.108 15.348-59.801 52.024-78.242 49.325-20.226-2.96-64.825-19.536-57.626-44.602 16.009-55.74 51.046-39.586 64.087-37.13 13.302 2.506 37.695-16.85 51.888-6.071 10.768 8.178 19.32 30.54 19.893 38.478ZM249.712 136.664c1.373 8.921-13.124 29.257-23.5 29-11.381-.282-34.762-12.283-32-27.5 6.142-33.838 19.224-19.48 26.589-18.977 7.512.513 14.995-7.823 23.411-2.523 6.385 4.022 4.79 15.386 5.5 20ZM24 38.5c0 6.627-5.373 12-12 12s-12-5.373-12-12S2.873 30 9.5 30 24 31.873 24 38.5Z" fill="currentColor"/>
  </symbol>
</svg>