<svg fill="none" xmlns="http://www.w3.org/2000/svg" viewBox="0 0 1440 1030">
  <symbol id="hmm-2">
    <path d="M41.19 884.785c26.798-11.959 59.966-20.606 85.877-22.02l1.742-.095c49.036-2.675 50.862-2.775 98.621.525 29.169 2.015 56.753 5.162 82.277 14.321 22.28 7.996 45.859 18.277 59.065 37.611 15.458 22.632 14.436 50.882.457 84.818-10.97 26.625-24.775 46.705-60.48 96.345-79.402 110.39-185.823 93.17-217.55 72.22-32.36-21.38-27.058-35.41-67.699-72.22-13.554-15.6-76.375-39.56-81.033-62.36-4.189-20.5 29.657-80.482 45.389-104.383 13.392-20.347 33.229-35.79 53.334-44.762ZM143.008 700.982a.646.646 0 0 1-.733-.601c-.024-.244.047-.431.301-.815l3.528-5.603-4.564-4.82c-.325-.327-.431-.496-.456-.74a.645.645 0 0 1 .601-.733c.244-.025.455.066.682.313l4.435 4.878 3.388-5.655c.173-.287.362-.418.607-.442.378-.038.693.2.733.6.024.245-.047.431-.301.815l-3.547 5.627 4.584 4.797c.324.326.43.495.455.74a.646.646 0 0 1-.601.733c-.244.024-.455-.067-.682-.314l-4.43-4.834-3.393 5.612c-.173.286-.362.417-.607.442Zm10.858-13.738c-.053-.533.189-.804.589-.844.4-.04.656.271.895.652l4.044 6.129 2.757-6.806c.16-.419.349-.775.749-.815.4-.039.691.179.744.712l1.171 11.779c.049.489-.191.782-.591.822-.4.039-.716-.199-.764-.688l-.942-9.467-2.265 5.657c-.183.422-.365.619-.676.65-.311.031-.529-.127-.791-.505l-3.335-5.099.941 9.467c.049.489-.191.782-.591.822-.4.04-.716-.198-.764-.687l-1.171-11.779Z" fill="currentColor"/>
    <path d="M220.956 961.299c23.954-1.915 28.429-30.473 27.993-30.117 1.045-3.619-.58-14.922-.285-18.602.397-4.945-6.751-24.111-9.078-29.2-2.172-4.75-12.248-26.009-14.432-27.57-13.973-3.591-32.104-3.876-46.49-4.164-10.021-.201-20.011-.705-30.027-1.044-5.359-.181-10.218-.987-15.561-.075-3.582.611-6.053.965-9.354 2.334-11.464 10.715-31.185 26.948-32.15 49.606-.723 16.993 20.926 25.475 57.85 34.995 22.501 5.801 30.782 6.643 39.711 6.045 10.569 19.48 29.52 17.976 31.823 17.792Z" fill="#000"/>
    <path d="m153.628 922.116-6.336-6.514-5.561-1.738-7.349 1.192-5.71 4.321-3.634 5.491.775 4.777 3.02 9.314.786 4.019 2.018 2.031 2.747.037 1.74-.66 3.664 1.265 2.977-2.164 4.777-.775 1.916-4.459 1.529.129 2.999-.109 1.788-2.93.089-6.425-2.235-6.802Z" fill="#000"/>
    <path d="M142.433 933.148s1.701 7.733-.366 10.879c-2.068 3.145-5.908.453-5.908.453" stroke="currentColor" stroke-width="2" stroke-linecap="round"/>
    <path d="M136.754 934.877s2.86 9.622-2.683 10.395c-5.543.772-5.618-8.681-5.618-8.681s-6.068-6.395-2.217-13.673M149.225 937.9s1.058 1.005 3.203.952c3.256-.081 6.349-9.916-.469-18.871-6.817-8.954-19.009-8.121-25.636 2.751" stroke="currentColor" stroke-width="2" stroke-linecap="round"/>
    <path d="M148.293 930.808a1 1 0 0 1 1.983-.259l-1.983.259Zm.992-.13.991-.129v.001l.001.002v.005a.26.26 0 0 1 .003.019l.008.069.029.257a34.688 34.688 0 0 1 .181 3.97c-.017 1.185-.105 2.503-.339 3.757-.232 1.244-.62 2.494-1.277 3.497l-1.673-1.096c.453-.691.775-1.65.984-2.767.206-1.107.289-2.303.305-3.419a32.624 32.624 0 0 0-.196-3.962l-.007-.058-.001-.013-.001-.003v-.001.001l.992-.13Zm-.403 11.448c-1.32 2.013-3.075 2.576-4.501 2.586a6.14 6.14 0 0 1-2.376-.472l-.046-.021a.216.216 0 0 1-.015-.007l-.005-.003-.003-.001h-.001s-.001-.001.432-.902l.432-.902-.001-.001h-.002l-.001-.001h-.001a.04.04 0 0 1 .013.006l.078.032a4.174 4.174 0 0 0 1.481.272c.858-.006 1.942-.308 2.843-1.682l1.673 1.096ZM726.422 605.099C714.268 621.4 964.967 695.916 949 706c-30.804 19.455-213.3 118.209-448.5 100.999-123-9-94.069 75-127.5 181-17.013 2.023.028-47.325-14.931-55.368-17.51-9.415-124.232-42.695-126.569-68.632 32 0 85.382-108.77 98.5-150 30.806-96.823 0-268 84.5-250 27.972 3.245 66.856 233.72 105.314 244.106 13.935 5.566 62.376.759 72.99 13.716 9.546 11.653 34.339-27.96 32.196-7.821-1.663 15.633 92.38-97.928 101.422-108.901a3.37 3.37 0 0 1 .078-.099c.876-1.064.796-.961-.078.099Z" fill="currentColor"/>
    <path d="M1272.23 197.07c-46.69-17.416-73.73 21.325-132.73 21.897-115.54 1.121-180.827 10.887-298.092 51.036-79.754 27.306-157.053-23.495-220.688 5.863-52.765 24.343-72.73 63.748-130.218 98.463-67.251 40.611-118.417 81.358-131.881 137.958-10.565 44.413 13.445 100.704 21.462 140.847 35.988 180.187 469.975 91.25 573.195 51.631 105.292-40.413 37.639-88.3 183.472-156.15 53.17-28.325 106.77-57.094 148.86-96.747 37.85-35.661 55.28-144.998 50.92-184.18-3.71-33.355-29.28-57.552-64.3-70.618ZM75.961 785.807a.644.644 0 0 1-.518-.793c.05-.24.174-.397.532-.687l5.05-4.281-2.902-5.971c-.211-.409-.262-.602-.212-.843a.645.645 0 0 1 .793-.518c.24.05.415.201.556.504l2.762 5.987 4.933-4.375c.252-.221.471-.289.712-.238.371.077.6.399.518.793-.05.24-.174.397-.532.687l-5.076 4.299 2.928 5.953c.211.409.262.602.212.843a.645.645 0 0 1-.794.518c-.24-.05-.414-.201-.556-.504l-2.77-5.943-4.924 4.331c-.252.221-.471.289-.712.238Zm14.488-9.834c.11-.524.422-.71.816-.628.393.083.543.457.657.891l2.012 7.062 4.677-5.66c.28-.353.567-.635.96-.552.394.082.606.378.496.902l-2.427 11.586c-.101.48-.418.688-.812.605-.394-.082-.623-.404-.522-.885l1.951-9.312-3.863 4.713c-.3.348-.534.481-.84.417-.306-.064-.466-.28-.602-.719l-1.646-5.867-1.951 9.312c-.1.481-.418.688-.812.606-.393-.083-.622-.405-.522-.886l2.428-11.585ZM148.072 837.572c-8.615 13.97-23.003 13.756-23.003 13.756s15.142-16.723 14.097-30.089c0 0-2.644 2.871-5.933 2.249 0 0 7.759-18.913 1.482-37.262-6.277-18.35-39.982-50.429-36.229-54.401 3.754-3.971 42.652 17.644 42.652 17.644l3.406-2.65s15.746 4.395 23.722 24.989c7.977 20.594-5.069 31.826-8.734 39.162-4.821 9.649-2.845 12.632-11.46 26.602ZM180.284 758.757c3.436 27.412 40.034 22.374 40.034 22.374s-9.926-11.529-15.198-33.828c-5.271-22.299 2.193-54.182-4.037-51.821-6.23 2.362-24.235 35.863-20.799 63.275Z" fill="currentColor"/>
    <path d="M141.067 750.175s5.699-4.879 10.292-7.979c4.592-3.1 9.981-12.686 10.568-8.593.325 2.273-.556 4.798-.556 4.798l8.285-3.651" stroke="currentColor" stroke-width="2" stroke-linecap="round"/>
    <ellipse cx="6.821" cy="9.612" rx="6.821" ry="9.612" transform="scale(-1 1) rotate(20.76 -2139.393 -166)" fill="#000"/>
    <ellipse cx="6.821" cy="9.612" rx="6.821" ry="9.612" transform="scale(-1 1) rotate(20.76 -2163.762 -50.085)" fill="#000"/>
    <path d="M202.447 779.41c9.161 3.308 24.903.528 34.279-1.661 4.26-.995 8.456 1.662 7.052 5.805-1.918 5.658-7.608 13.434-23.443 19.999-5.898 2.445-10.84 4.614-14.969 6.518" stroke="currentColor" stroke-width="2" stroke-linecap="round"/>
    <ellipse cx="2.216" cy="3.858" rx="2.216" ry="3.858" transform="matrix(-.9249 .3802 .38012 .92494 197.428 752.357)" fill="currentColor"/>
    <ellipse cx="2.216" cy="3.858" rx="2.216" ry="3.858" transform="matrix(-.9249 .3802 .38012 .92494 158.239 768.432)" fill="currentColor"/>
    <path d="M218.041 840.196c4.053 12.794 31.84 47.408 31.813 83.138M134.18 840.709c-10.66 15.983-41.318 32.608-43.256 63.199" stroke="currentColor" stroke-width="2" stroke-linecap="round"/>
    <path d="M223.706 852.152s-1.428 2.532-10.562 6.791M126.549 850s18.354 17.885 47.861 18.396c4.484.078 10.742-.531 14.802-1.177" stroke="currentColor" stroke-width="2"/>
    <path d="M227.521 859.066s-4.561 3.72-14.703 8.55m-92.516-12.903s18.23 20.578 53.471 21.101a89.754 89.754 0 0 0 14.644-.984" stroke="currentColor" stroke-width="2"/>
    <path d="m235.106 778.074-8.7 2.109s1.407 3.714 7.592 3.918c6.184.204 7.592 3.918 7.592 3.918l3.072-7.111-1.868-2.69-2.455-1.108-5.233.964Z" fill="currentColor"/>
    <path d="M249.395 921.857c.848 17.99-7.265 38.752-30.92 39.359 0 0-19.635 1.791-29.735-18.584-10.099-20.374 1.599-65.557.441-78.84-1.159-13.283-14.286-37.078-9.821-40.004 4.465-2.926 7.182 3.607 7.182 3.607" stroke="currentColor" stroke-width="2" stroke-linecap="round"/>
    <path d="M194.486 824.056s-3.67-8.073-8.366-6.565c-4.696 1.509-.626 8.053-.626 8.053" stroke="currentColor" stroke-width="2" stroke-linecap="round"/>
    <path d="M203.45 820.646a1.001 1.001 0 0 1-1.849.763l1.849-.763Zm-.925.381-.924.382-.001-.004-.008-.017-.032-.076c-.03-.067-.074-.169-.133-.298a23.547 23.547 0 0 0-.525-1.067c-.46-.881-1.121-2.017-1.935-3.073-.823-1.066-1.752-1.986-2.731-2.51-.944-.504-1.905-.633-2.936-.19l-.79-1.837c1.694-.728 3.297-.47 4.669.263 1.335.715 2.47 1.884 3.372 3.053.909 1.18 1.632 2.426 2.124 3.368.247.473.439.874.57 1.159.065.143.115.257.15.336l.039.093.011.026.003.007a.003.003 0 0 1 .001.002l.001.001-.925.382Zm-9.225-6.853c-2.597 1.116-2.918 2.114-2.947 2.494-.018.232.047.441.133.608.042.081.085.144.114.183l.029.037.001.001-.004-.004-.003-.003a.002.002 0 0 0-.002-.002l-.001-.001c0-.001-.001-.001-.727.686-.727.687-.727.686-.728.686l-.001-.001-.002-.003-.006-.006-.014-.015-.037-.043a3.32 3.32 0 0 1-.108-.135 3.522 3.522 0 0 1-.289-.464c-.2-.39-.404-.972-.35-1.677.115-1.493 1.3-2.953 4.152-4.178l.79 1.837Z" fill="currentColor"/>
    <path d="M210.922 818.776s-9.639-16.326-15.735-15.607c-6.097.718 1.384 10.219 1.384 10.219M211.229 818.185s2.646-7.248 5.601-9.687c4.459-3.68 10.567-1.219 2.511 12.185-8.055 13.404-4.931 35.161-7.784 75.013-2.611 36.475 12.622 29.124 14.367 28.463" stroke="currentColor" stroke-width="2" stroke-linecap="round"/>
    <path d="M212.658 884.444a36.908 36.908 0 0 1-24.376-1.09l-.831-.334" stroke="currentColor" stroke-width="2"/>
    <path d="M119.025 928.682v0c.112-10.436 8.115-19.089 18.511-20.014l3.636-.323" stroke="currentColor" stroke-width="2" stroke-linecap="round"/>
    <path d="M211.789 892.428a36.902 36.902 0 0 1-24.376-1.09l-.831-.333" stroke="currentColor" stroke-width="2"/>
    <path d="M193.738 742.48c-2.243-5.917-9.552-3.147-9.133 1.644-.135 3.643 1.883 5.483-2.028 9.345M162.34 764.664c-2.683 1.748-6.771 2.109-9.389 1.523-2.714-.607-6.165-1.575-8.691.19" stroke="#000" stroke-width="2" stroke-linecap="round"/>
    <path d="M141.033 908.399s-9.696-6.675-21.637-7.721" stroke="currentColor" stroke-width="2" stroke-linecap="round"/>
    <path d="M289 943c19.5 0 24-4.5 24-24 0 19.5 4.5 24 24 24-19.5 0-24 4.5-24 24 0-19.5-4.5-24-24-24ZM60 984c11.375 0 14-2.625 14-14 0 11.375 2.625 14 14 14-11.375 0-14 2.625-14 14 0-11.375-2.625-14-14-14Z" stroke="currentColor" stroke-width="2" stroke-linecap="round" stroke-linejoin="round" style="mix-blend-mode:difference"/>
  </symbol>
</svg>