<svg xmlns="http://www.w3.org/2000/svg" fill="none" viewBox="0 0 381 353">
  <symbol id="hmm">
    <g clip-path="url(#a)">
      <path fill="currentColor" d="M41.3116 207.785c26.7978-11.959 59.9664-20.606 85.8764-22.02l1.743-.095c49.036-2.675 50.862-2.775 98.621.525 29.168 2.015 56.753 5.162 82.276 14.321 22.281 7.996 45.859 18.277 59.065 37.611 15.458 22.632 14.437 50.882.458 84.818-10.97 26.63-24.775 46.704-60.481 96.344-79.401 110.392-185.823 93.176-217.5485 72.22-32.3614-21.377-27.0585-35.408-67.6998-72.22-13.5543-15.597-76.3747-39.555-81.0327-62.356-4.1892-20.506 29.6567-80.485 45.3883-104.386 13.39206-20.347 33.2293-35.79 53.3343-44.762Z"/>
      <path fill="#000" d="M221.896 284.438c24.048-1.923 28.54-30.592 28.102-30.234 1.049-3.634-.582-14.981-.286-18.675.399-4.964-6.778-24.205-9.114-29.314-2.18-4.768-12.295-26.11-14.488-27.677-.198-.051-4.488-8.538-4.488-8.538l-2.5-7c-1.5-3.5-2.5-5.5-3.5-9.5l4.12-9.256 4.27-10.419c.289-3.907-2.316-5.86-6.874-1.953l-6.016 9.628-5.5-8.5 21.934-9.593s14.432-7.213 14.978-13.675c1.013-12.0037-13.675-7.814-13.675-7.814L219.5 103.5l-33.619-49.1191C179.122 54.5 175.622 55 169.122 57l-6.5 3-.835-4.9679-7.163 7.163-12.372 10.4188 1.302 71.6301-7.162 21.488s-8.795 8.47-12.11 9.845c-11.508 10.756-31.3057 27.053-32.2743 49.799-.7264 17.06 21.0073 25.575 58.0753 35.132 22.589 5.824 30.902 6.669 39.865 6.068 10.61 19.556 29.636 18.047 31.948 17.862Z"/>
      <path fill="currentColor" d="M148.194 160.572c-8.615 13.97-23.003 13.756-23.003 13.756s15.142-16.723 14.097-30.089c0 0-2.644 2.871-5.933 2.249 0 0 7.759-18.913 1.481-37.262-6.277-18.3498-39.9814-50.4294-36.2281-54.4009C102.361 50.8537 141.26 72.469 141.26 72.469l3.406-2.6504s15.746 4.3956 23.722 24.9894c7.976 20.594-5.069 31.826-8.734 39.162-4.821 9.649-2.846 12.632-11.46 26.602Zm32.212-78.815c3.436 27.412 40.034 22.374 40.034 22.374s-9.927-11.5288-15.198-33.8276c-5.272-22.2988 2.192-54.1827-4.037-51.8212-6.23 2.3614-24.235 35.8625-20.799 63.2748Z"/>
      <path stroke="currentColor" stroke-linecap="round" stroke-width="2" d="M141.188 73.1755s5.7-4.879 10.292-7.9792c4.593-3.1002 9.982-12.6862 10.568-8.5936.326 2.2731-.556 4.7984-.556 4.7984l8.286-3.6506"/>
      <ellipse cx="6.82087" cy="9.61209" fill="#000" rx="6.82087" ry="9.61209" transform="scale(-1 1) rotate(20.7603 -291.50758094 -504.8337218)"/>
      <ellipse cx="6.82087" cy="9.61209" fill="#000" rx="6.82087" ry="9.61209" transform="scale(-1 1) rotate(20.7603 -315.87680127 -388.91832281)"/>
      <path stroke="currentColor" stroke-linecap="round" stroke-width="2" d="M202.568 102.41c9.161 3.308 24.904.528 34.28-1.661 4.259-.995 8.455 1.662 7.051 5.805-1.917 5.658-7.607 13.434-23.443 19.999-5.897 2.445-10.839 4.614-14.969 6.518"/>
      <ellipse cx="2.21596" cy="3.85768" fill="currentColor" rx="2.21596" ry="3.85768" transform="matrix(-.924903 .380203 .380122 .924937 197.55 75.3566)"/>
      <ellipse cx="2.21596" cy="3.85768" fill="currentColor" rx="2.21596" ry="3.85768" transform="matrix(-.924903 .380203 .380122 .924937 158.361 91.4318)"/>
      <path stroke="currentColor" stroke-linecap="round" stroke-width="2" d="M218.162 163.196c4.054 12.794 31.841 47.408 31.814 83.138"/>
      <path fill="currentColor" fill-rule="evenodd" d="M134.857 162.877c.46.307.584.927.277 1.387-2.73 4.094-6.717 8.196-11.118 12.478-1.046 1.017-2.116 2.046-3.201 3.089-3.506 3.369-7.168 6.889-10.678 10.679-9.183 9.917-17.146 21.508-18.0935 36.461-.0349.551-.5101.97-1.0613.935-.5511-.035-.9696-.51-.9347-1.062.9909-15.637 9.3257-27.653 18.6215-37.693 3.554-3.837 7.274-7.413 10.788-10.79 1.078-1.035 2.136-2.052 3.164-3.053 4.406-4.286 8.25-8.256 10.849-12.154.307-.459.928-.583 1.387-.277Z" clip-rule="evenodd"/>
      <path stroke="currentColor" stroke-width="2" d="M223.828 175.152s-1.429 2.532-10.562 6.791M126.671 173s18.354 17.885 47.861 18.396c4.484.078 10.741-.531 14.802-1.177"/>
      <path fill="currentColor" fill-rule="evenodd" d="m227.643 182.066-.632-.775-.001.001-.007.006-.035.027c-.032.026-.082.065-.151.118-.136.105-.346.263-.632.47-.57.413-1.441 1.017-2.628 1.773-2.374 1.512-6.014 3.63-11.047 6.027-.499.238-.247.788-.01 1.287.237.499.371.757.87.519 5.108-2.433 8.82-4.59 11.262-6.146 1.221-.777 2.124-1.404 2.726-1.84.301-.218.526-.388.679-.505.076-.058.133-.103.173-.135l.046-.036.013-.011.004-.003.001-.001s.001-.001-.631-.776Zm-105.897-4.232c-.368-.412-1-.448-1.412-.08-.412.367-.448 1-.08 1.412l.746-.666c-.746.666-.745.667-.745.667l.001.001.003.004.013.014.044.048c.038.041.093.101.166.177.145.153.36.374.644.654.569.558 1.414 1.35 2.538 2.299 2.246 1.898 5.604 4.425 10.074 6.966 8.942 5.084 22.329 10.22 40.142 10.484 5.214.077 10.16-.298 14.806-.995.547-.082.923-.591.841-1.137-.082-.546-.591-.923-1.137-.841-4.544.682-9.382 1.048-14.481.973-17.428-.259-30.488-5.28-39.183-10.222-4.349-2.473-7.607-4.926-9.772-6.755-1.082-.915-1.891-1.673-2.426-2.199-.267-.263-.466-.467-.596-.605-.066-.068-.114-.12-.145-.153l-.033-.037-.007-.008-.001-.001Z" clip-rule="evenodd"/>
      <path fill="currentColor" d="m235.228 101.074-8.701 2.109s1.408 3.714 7.593 3.918c6.184.204 7.592 3.918 7.592 3.918l3.072-7.111-1.868-2.69-2.456-1.108-5.232.964Z"/>
      <path stroke="currentColor" stroke-linecap="round" stroke-width="2" d="M250 246.5c.848 17.99-7.749 37.109-31.403 37.716 0 0-19.635 1.791-29.735-18.584-10.099-20.374 1.599-65.557.44-78.84-1.158-13.283-14.286-37.077-9.821-40.004 4.466-2.926 7.183 3.607 7.183 3.607"/>
      <path stroke="currentColor" stroke-linecap="round" stroke-width="2" d="M194.608 147.056s-3.67-8.073-8.366-6.565c-4.696 1.509-.626 8.053-.626 8.053"/>
      <path fill="currentColor" d="M203.571 143.646c.211.511-.032 1.095-.543 1.306-.51.21-1.095-.033-1.305-.543l1.848-.763Zm-.924.381-.924.382c-.001-.001-.001-.002-.002-.004-.001-.003-.004-.009-.007-.017-.007-.017-.018-.042-.033-.076-.029-.067-.074-.169-.133-.298-.119-.259-.295-.629-.524-1.067-.46-.881-1.122-2.017-1.936-3.073-.822-1.066-1.752-1.986-2.731-2.51-.943-.504-1.904-.633-2.936-.19l-.789-1.837c1.693-.728 3.297-.47 4.668.264 1.336.714 2.471 1.883 3.372 3.052.91 1.18 1.632 2.426 2.124 3.368.248.473.439.874.57 1.16.066.142.116.256.15.335.017.04.031.071.04.093.005.011.008.02.011.026.001.003.002.005.003.007 0 .001.001.002.001.003s0 .001-.924.382Zm-9.226-6.853c-2.597 1.116-2.918 2.114-2.947 2.495-.018.231.048.44.134.607.042.081.085.144.114.183.014.02.024.032.029.037.002.002.002.003.001.001l-.004-.004-.003-.003-.002-.002-.001-.001c0-.001-.001-.001-.727.686-.727.687-.728.687-.728.686l-.001-.001-.003-.003c-.001-.002-.003-.004-.005-.006-.004-.004-.009-.009-.014-.015-.01-.012-.023-.026-.038-.043-.029-.034-.065-.079-.107-.135-.083-.111-.188-.268-.289-.464-.201-.39-.404-.972-.35-1.676.115-1.494 1.3-2.954 4.152-4.179l.789 1.837Z"/>
      <path stroke="currentColor" stroke-linecap="round" stroke-width="2" d="M211.044 141.776s-9.639-16.326-15.736-15.607c-6.097.718 1.384 10.219 1.384 10.219m14.658 4.797s2.646-7.247 5.601-9.686c4.459-3.681 10.567-1.22 2.512 12.184-8.056 13.404-4.932 35.162-7.784 75.013-2.611 36.475 12.622 29.124 14.366 28.463"/>
      <path stroke="currentColor" stroke-width="2" d="M212.779 207.444c-8.014 2.411-16.609 2.026-24.376-1.09l-.831-.334"/>
      <path stroke="currentColor" stroke-linecap="round" stroke-width="2" d="M119.147 251.682v0c.111-10.436 8.114-19.089 18.51-20.014l3.636-.323"/>
      <path stroke="currentColor" stroke-width="2" d="M211.911 215.428c-8.014 2.411-16.609 2.027-24.376-1.09l-.831-.333"/>
      <path fill="#000" fill-rule="evenodd" d="M190.98 63.4609c.739.37 1.46 1.095 1.945 2.3732.195.5164.773.7763 1.289.5806.517-.1958.777-.7731.581-1.2896-.637-1.6803-1.671-2.8278-2.92-3.4528-1.239-.6201-2.605-.6831-3.839-.3517-2.41.647-4.535 2.8861-4.311 5.8268-.03.9802.08 1.8327.188 2.5751.014.0919.027.1813.04.2685.097.6552.176 1.1866.176 1.7223-.001 1.0724-.321 2.255-2.133 4.0441-.393.3881-.397 1.0213-.009 1.4142.389.393 1.022.3969 1.415.0088 2.099-2.073 2.725-3.7414 2.727-5.4654 0-.6955-.103-1.3847-.198-2.0222-.013-.0876-.026-.1743-.039-.2599-.107-.7325-.196-1.4563-.166-2.272l.002-.0623-.005-.0621c-.159-1.8184 1.148-3.3322 2.831-3.7843.821-.2205 1.677-.1661 2.426.2087Zm-27.681 23.6566c-.301-.4626-.921-.5932-1.384-.2916-1.183.7715-2.724 1.2627-4.311 1.4846-1.585.2216-3.139.1636-4.313-.0992-.184-.041-.373-.0845-.569-.1293-1.201-.2753-2.61-.5984-4.001-.6875-1.635-.1046-3.39.0993-4.912 1.1633-.453.3164-.564.9398-.247 1.3925.316.4527.94.5632 1.392.2469 1.004-.7016 2.238-.8964 3.639-.8067 1.216.0778 2.448.3593 3.659.6358.201.046.402.0919.602.1367 1.444.3232 3.243.3777 5.027.1282 1.783-.2492 3.628-.8127 5.127-1.7898.462-.3017.593-.9212.291-1.3839Z" clip-rule="evenodd"/>
      <path fill="#000" d="m153.75 245.116-6.336-6.514-5.562-1.738-7.348 1.192-5.71 4.321-3.634 5.491.775 4.777 3.019 9.314.787 4.019 2.018 2.031 2.746.037 1.741-.66 3.664 1.265 2.977-2.164 4.777-.775 1.916-4.459 1.529.129 2.999-.109 1.787-2.93.089-6.425-2.234-6.802Z"/>
      <path stroke="currentColor" stroke-linecap="round" stroke-width="2" d="M142.554 256.148s1.702 7.733-.365 10.879c-2.068 3.145-5.908.453-5.908.453"/>
      <path stroke="currentColor" stroke-linecap="round" stroke-width="2" d="M136.876 257.877s2.86 9.622-2.683 10.395c-5.543.772-5.618-8.681-5.618-8.681s-6.068-6.395-2.217-13.673m22.989 14.982s1.058 1.005 3.202.952c3.256-.081 6.35-9.916-.468-18.871-6.818-8.954-19.009-8.121-25.636 2.751"/>
      <path fill="currentColor" d="M148.415 253.808c-.072-.548.314-1.05.862-1.121.548-.072 1.05.314 1.121.862l-1.983.259Zm.992-.13.991-.129v.003c.001.001.001.003.001.005.001.005.002.011.003.019.002.016.004.039.008.069.007.06.017.147.029.257.023.221.054.538.083.928.059.778.114 1.854.097 3.042-.016 1.185-.104 2.503-.338 3.757-.232 1.244-.62 2.494-1.278 3.497l-1.672-1.096c.452-.691.775-1.65.983-2.767.207-1.107.29-2.303.306-3.419.015-1.113-.036-2.127-.092-2.863-.028-.368-.057-.665-.078-.868-.011-.101-.02-.18-.026-.231-.003-.026-.005-.046-.007-.058-.001-.006-.001-.011-.002-.013v-.004.001l.992-.13Zm-.404 11.448c-1.319 2.013-3.074 2.576-4.5 2.586-.691.005-1.29-.117-1.714-.238-.214-.061-.388-.124-.512-.172-.063-.025-.113-.046-.15-.062-.019-.008-.034-.015-.046-.021-.006-.002-.011-.005-.015-.007l-.006-.003s-.001 0-.002-.001h-.001c-.001 0-.001-.001.432-.902.432-.902.432-.902.431-.902v-.001h-.002c-.001-.001-.001-.001-.002-.001s-.001-.001 0 0c.001 0 .006.002.013.006.015.006.041.017.078.032.073.028.187.069.332.111.293.084.697.165 1.149.161.858-.006 1.942-.308 2.843-1.682l1.672 1.096Zm4.984-254.8818c-.053-.53343.19-.80441.59-.84418.4-.03977.655.2715.895.65168l4.043 6.1291 2.758-6.80523c.16-.41992.349-.77537.749-.81514.4-.03978.691.17818.744.71155l1.171 11.77872c.049.489-.191.7822-.591.8219-.401.0398-.716-.1981-.765-.6871l-.941-9.4674-2.265 5.6566c-.183.4221-.365.6198-.676.6507-.311.031-.529-.1269-.791-.5049l-3.335-5.0998.941 9.4674c.049.489-.191.7822-.591.8219-.4.0398-.716-.1982-.764-.6871l-1.172-11.7787ZM143.13 23.9818c-.378.0375-.693-.2004-.733-.6005-.024-.2444.047-.4311.301-.8154l3.527-5.6025-4.564-4.8206c-.324-.3268-.43-.4958-.455-.7402-.039-.4001.223-.6955.601-.733.244-.0243.455.0669.682.3137l4.435 4.8782 3.388-5.6559c.173-.28662.362-.41762.607-.44193.377-.03756.693.20041.733.60043.024.2445-.047.4311-.301.8154l-3.548 5.627 4.584 4.7961c.325.3269.431.4958.456.7403.039.4-.223.6954-.601.733-.244.0243-.455-.0669-.682-.3137l-4.431-4.8338-3.392 5.6115c-.173.2866-.362.4176-.607.4419ZM90.5705 98.9732c.11-.5246.4226-.7101.8161-.6277.3935.0825.5434.4561.6577.8908l2.0117 7.0617 4.6771-5.66c.2792-.353.5665-.635.9599-.552.394.082.605.378.496.902l-2.4277 11.586c-.1008.48-.4181.688-.8115.605-.3935-.082-.6227-.404-.5219-.885l1.9509-9.312-3.8625 4.713c-.301.348-.5344.481-.8404.417-.3061-.064-.4661-.28-.6023-.719l-1.6459-5.867-1.951 9.312c-.1008.481-.418.688-.8115.606-.3935-.083-.6227-.405-.5219-.886l2.4272-11.5848Zm-14.4876 9.8338c-.3716-.077-.6008-.399-.5184-.793.0504-.24.1745-.397.5319-.687l5.05-4.281-2.9021-5.9708c-.2109-.4092-.2617-.6024-.2113-.8429.0825-.3935.4216-.5962.7932-.5184.2404.0504.4143.2009.556.5044l2.7618 5.9867 4.9326-4.3746c.2517-.2211.4713-.2892.7118-.2388.3716.0779.6008.3997.5184.7932-.0504.2404-.1745.397-.5319.6872l-5.0765 4.299 2.9286 5.953c.2109.409.2617.602.2113.843-.0824.393-.4216.596-.7932.518-.2404-.05-.4143-.201-.556-.504l-2.771-5.943-4.9234 4.331c-.2517.221-.4713.289-.7118.238Z"/>
      <path stroke="currentColor" stroke-linecap="round" stroke-width="2" d="M141.155 231.399s-9.696-6.675-21.637-7.721"/>
      <path fill="#000" fill-rule="evenodd" d="M313.122 241c.552 0 1 .448 1 1 0 9.773 1.155 15.366 4.394 18.605 3.24 3.24 8.833 4.395 18.606 4.395.552 0 1 .448 1 1s-.448 1-1 1c-9.773 0-15.366 1.155-18.606 4.395-3.239 3.239-4.394 8.832-4.394 18.605 0 .552-.448 1-1 1-.553 0-1-.448-1-1 0-9.773-1.155-15.366-4.395-18.605-3.24-3.24-8.832-4.395-18.605-4.395-.553 0-1-.448-1-1s.447-1 1-1c9.773 0 15.365-1.155 18.605-4.395 3.24-3.239 4.395-8.832 4.395-18.605 0-.552.447-1 1-1Zm0 13.054c-.756 3.374-2.009 5.994-3.981 7.966-1.971 1.971-4.591 3.224-7.965 3.98 3.374.756 5.994 2.009 7.965 3.98 1.972 1.972 3.225 4.592 3.981 7.966.756-3.374 2.009-5.994 3.98-7.966 1.971-1.971 4.592-3.224 7.966-3.98-3.374-.756-5.995-2.009-7.966-3.98-1.971-1.972-3.224-4.592-3.98-7.966ZM74.1217 292c.5523 0 1 .448 1 1 0 5.711.6862 8.803 2.4415 10.559 1.7552 1.755 4.8479 2.441 10.5585 2.441.5523 0 1 .448 1 1s-.4477 1-1 1c-5.7106 0-8.8033.686-10.5585 2.441-1.7553 1.756-2.4415 4.848-2.4415 10.559 0 .552-.4477 1-1 1s-1-.448-1-1c0-5.711-.6862-8.803-2.4415-10.559C68.925 308.686 65.8323 308 60.1217 308c-.5523 0-1-.448-1-1s.4477-1 1-1c5.7106 0 8.8033-.686 10.5585-2.441 1.7553-1.756 2.4415-4.848 2.4415-10.559 0-.552.4477-1 1-1Zm0 9.581c-.4626 1.356-1.1176 2.482-2.0273 3.392-.9097.909-2.0356 1.564-3.3914 2.027 1.3558.463 2.4817 1.118 3.3914 2.027.9097.91 1.5647 2.036 2.0273 3.392.4626-1.356 1.1176-2.482 2.0273-3.392.9097-.909 2.0356-1.564 3.3914-2.027-1.3558-.463-2.4817-1.118-3.3914-2.027-.9097-.91-1.5647-2.036-2.0273-3.392Z" clip-rule="evenodd"/>
    </g>
    <defs>
      <clipPath id="a">
        <path fill="currentColor" d="M0 0h381v353H0z"/>
      </clipPath>
    </defs>
  </symbol>  
</svg>
