<svg xmlns="http://www.w3.org/2000/svg" fill="none" viewBox="0 0 433 215">
  <symbol id="ufo">
    <g clip-path="url(#a)">
      <g style="mix-blend-mode:difference">
        <path fill="currentColor" fill-rule="evenodd" d="M141.945 102.285c-.552-.002-1.001.444-1.003.997l-.255 71.022c-.002.552.444 1.002.997 1.003.552.002 1.001-.444 1.003-.996l.255-71.022c.002-.553-.445-1.002-.997-1.004ZM83.3148 83.44c-.451-.3187-1.075-.2114-1.3938.2396L40.9342 141.682c-.3187.451-.2114 1.075.2396 1.394.451.319 1.075.212 1.3938-.239l40.9868-58.0032c.3187-.4511.2114-1.0751-.2396-1.3938Zm5.5663 14.1954c-.4601-.3055-1.0807-.1802-1.3862.2798L70.8173 123.028c-.3055.46-.1802 1.081.2798 1.386.4601.306 1.0808.181 1.3863-.279l16.6775-25.1133c.3056-.4601.1803-1.0808-.2798-1.3863Zm87.6649-44.9388c-19.09-1.8045-33.705-4.347-47.671-8.8359-13.967-4.489-27.326-10.9373-43.893-20.5934 30.175-37.5416 88.912-18.66321 91.564 29.4293Zm2.051 1.0662c-1.861-51.18214-64.57-71.3371-95.9029-30.8238-.1759.2274-.2454.5195-.1908.8018.0547.2823.2282.5273.4762.6727 17.0955 10.018 30.8475 16.7115 45.2835 21.3512 14.435 4.6397 29.512 7.2121 49.243 9.0302.286.0264.57-.0718.779-.2693.209-.1976.322-.4755.312-.7628Z" clip-rule="evenodd"/>
        <path fill="currentColor" fill-rule="evenodd" d="M175.887 41.8223c-.238.4984-.026 1.0953.472 1.3331 11.174 5.3302 18.812 11.1154 23.257 16.6019 4.452 5.4942 5.607 10.5497 4.189 14.5679-1.423 4.0317-5.571 7.4062-12.598 9.2234-7.01 1.8126-16.723 2.022-28.909-.156-33.534-5.9935-51.906-11.7465-83.6284-26.8787-11.1731-5.3298-18.9452-11.1589-23.5861-16.7161-4.6524-5.5711-6.058-10.7306-4.8656-14.8364 1.1885-4.0921 5.0732-7.5275 11.8923-9.3993 6.8094-1.8691 16.3876-2.1211 28.5746.057.5436.0972 1.0631-.2648 1.1603-.8084.0972-.5437-.2648-1.0632-.8084-1.1604-12.3616-2.2093-22.2624-1.9914-29.456-.0169-7.184 1.972-11.8266 5.7541-13.2834 10.7702-1.4528 5.0023.3784 10.8414 5.2511 16.6761 4.8841 5.8486 12.9254 11.8324 24.2601 17.2394 31.8865 15.2108 50.4305 21.018 84.1375 27.0423 12.362 2.2095 22.384 2.0312 29.761.1235 7.36-1.9033 12.25-5.5821 13.984-10.494 1.739-4.9255.169-10.7043-4.521-16.4926-4.696-5.796-12.616-11.7415-23.95-17.1481-.498-.2377-1.095-.0264-1.333.4721Z" clip-rule="evenodd"/>
        <path fill="currentColor" fill-rule="evenodd" d="M162.845 84.4214c-.258-.4879-.863-.6738-1.351-.4151-12.947 6.8638-30.156 6.92-45.844 1.8779-15.6875-5.0422-29.6406-15.114-36.1641-28.2357-.2459-.4945-.8461-.6961-1.3406-.4502-.4946.2458-.6962.8461-.4503 1.3406 6.8328 13.7438 21.3115 24.0966 37.343 29.2494 16.032 5.1527 33.832 5.1743 47.392-2.015.488-.2586.674-.8639.415-1.3519Z" clip-rule="evenodd"/>
        <circle cx="3.76076" cy="3.76076" r="2.76076" stroke="currentColor" stroke-width="2" transform="scale(-1 1) rotate(-17.81773 121.39299601 436.33990227)"/>
        <circle cx="3.76076" cy="3.76076" r="2.76076" stroke="currentColor" stroke-width="2" transform="scale(-1 1) rotate(-17.81773 131.07200133 538.76238671)"/>
        <circle cx="3.76076" cy="3.76076" r="2.76076" stroke="currentColor" stroke-width="2" transform="scale(-1 1) rotate(-17.81773 120.6333195 633.10633882)"/>
        <circle cx="3.76076" cy="3.76076" r="2.76076" stroke="currentColor" stroke-width="2" transform="scale(-1 1) rotate(-17.81773 99.34864683 335.80569215)"/>
        <circle cx="3.76076" cy="3.76076" r="2.76076" stroke="currentColor" stroke-width="2" transform="scale(-1 1) rotate(-17.81773 60.46228161 249.24176966)"/>
        <circle cx="1.72627" cy="1.72627" r="1" stroke="currentColor" stroke-width="1.45254" transform="matrix(.899092 .43776 .43776 -.899092 137.616 212.987)"/>
        <circle cx="3.02097" cy="3.02097" r="2.02097" stroke="currentColor" stroke-width="2" transform="matrix(.899092 .43776 .43776 -.899092 117.857 118.269)"/>
        <path fill="currentColor" d="M123.196 24.9149c.04.4138.234.7047.52.7959.416.1327.835-.1058.96-.4958.041-.13.039-.3026.037-.4751l-1.06-9.1608c-.058-.448-.216-.6704-.554-.7782-.338-.1078-.638.0256-.902.3138l-6.168 6.8554c-.102.1394-.204.2788-.245.4088-.125.39.08.8275.496.9602.286.0912.612-.0339.884-.3481l5.214-5.9281.818 7.852Zm9.906 10.5786c.65.2073 1.28.2078 1.471-.3902.116-.364-.062-.7932-.478-.9259-.156-.0498-.459-.089-.641-.147-.832-.2654-1.472-1.6725-1.769-2.6267 1.5-.8394 3.211-1.9837 3.75-3.6737.622-1.95-.42-3.8007-2.475-4.4558-2.054-.6551-3.975.2502-4.597 2.2002-.539 1.69.194 3.6138.93 5.1664-.795.6058-2.131 1.3827-2.963 1.1173-.182-.058-.451-.2012-.607-.251-.416-.1327-.81.1141-.926.4781-.191.598.323.9624.973 1.1698 1.768.5639 3.156-.1964 4.388-1.0928.484 1.4437 1.176 2.8674 2.944 3.4313Zm12.954-3.2874c.04.4137.233.7046.519.7959.416.1327.836-.1058.961-.4958.041-.13.039-.3026.037-.4752l-1.06-9.1607c-.058-.4481-.216-.6704-.554-.7782-.338-.1078-.638.0255-.902.3138l-6.168 6.8553c-.102.1394-.204.2788-.245.4088-.125.39.079.8276.495.9602.286.0913.613-.0338.885-.3481l5.213-5.928.819 7.852Z"/>
      </g>
      <path fill="currentColor" fill-rule="evenodd" d="M290.198 127.887c-.553 0-1 .448-1 1 0 9.773-1.155 15.366-4.395 18.606-3.239 3.239-8.832 4.394-18.605 4.394-.553 0-1 .448-1 1 0 .553.447 1 1 1 9.773 0 15.366 1.155 18.605 4.395 3.24 3.24 4.395 8.832 4.395 18.605 0 .553.447 1 1 1 .552 0 1-.447 1-1 0-9.773 1.155-15.365 4.394-18.605 3.24-3.24 8.833-4.395 18.606-4.395.552 0 1-.447 1-1 0-.552-.448-1-1-1-9.773 0-15.366-1.155-18.606-4.394-3.239-3.24-4.394-8.833-4.394-18.606 0-.552-.448-1-1-1Zm0 13.055c.756 3.373 2.009 5.994 3.98 7.965s4.592 3.224 7.966 3.98c-3.374.756-5.995 2.009-7.966 3.981-1.971 1.971-3.224 4.591-3.98 7.965-.756-3.374-2.009-5.994-3.981-7.965-1.971-1.972-4.591-3.225-7.965-3.981 3.374-.756 5.994-2.009 7.965-3.98 1.972-1.971 3.225-4.592 3.981-7.965Z" clip-rule="evenodd" style="mix-blend-mode:difference"/>
      <circle cx="5" cy="5" r="4" stroke="currentColor" stroke-width="2" style="mix-blend-mode:difference" transform="scale(-1 1) rotate(42.04325 -299.6083689 -394.23059642)"/>
      <circle cx="2" cy="2" r="1" stroke="currentColor" stroke-width="2" style="mix-blend-mode:difference" transform="scale(-1 1) rotate(42.04325 -303.2161375 -412.04254757)"/>
      <circle cx="3.5" cy="3.5" r="2.5" stroke="currentColor" stroke-width="2" style="mix-blend-mode:difference" transform="scale(-1 1) rotate(42.04325 -313.22187737 -405.43490193)"/>
      <circle cx="5" cy="5" r="4" stroke="currentColor" stroke-width="2" style="mix-blend-mode:difference" transform="scale(1 -1) rotate(17.28944 856.74006743 1296.27184881)"/>
      <circle cx="2" cy="2" r="1" stroke="currentColor" stroke-width="2" style="mix-blend-mode:difference" transform="scale(1 -1) rotate(-23.33966 -352.81383062 -72.17446855)"/>
      <circle cx="3.5" cy="3.5" r="2.5" stroke="currentColor" stroke-width="2" style="mix-blend-mode:difference" transform="scale(1 -1) rotate(17.28944 815.1255503 1205.55932222)"/>
    </g>
    <defs>
      <clipPath id="a">
        <path fill="#fff" d="M0 0h433v215H0z"/>
      </clipPath>
    </defs>
  </symbol>  
</svg>
